<svg width="14" height="14" viewBox="0 0 14 14" fill="none" xmlns="http://www.w3.org/2000/svg">
<path d="M6.45982 1.53591C6.64648 1.04357 7.3529 1.04357 7.54015 1.53591L8.74765 4.88074C8.78978 4.9897 8.86395 5.08332 8.96039 5.14925C9.05683 5.21517 9.171 5.2503 9.28782 5.24999H12.2552C12.8036 5.24999 13.0427 5.93249 12.6117 6.26674L10.5 8.16666C10.4054 8.23937 10.3363 8.34018 10.3025 8.45462C10.2688 8.56906 10.2721 8.69125 10.3122 8.80366L11.0833 12.0721C11.2711 12.5971 10.6633 13.048 10.2037 12.7248L7.3354 10.9048C7.23717 10.8358 7.12004 10.7987 6.99998 10.7987C6.87993 10.7987 6.76279 10.8358 6.66457 10.9048L3.79632 12.7248C3.33723 13.048 2.72882 12.5965 2.91665 12.0721L3.68782 8.80366C3.72782 8.69125 3.73119 8.56906 3.69745 8.45462C3.6637 8.34018 3.59457 8.23937 3.49998 8.16666L1.38832 6.26674C0.95665 5.93249 1.19698 5.24999 1.74415 5.24999H4.71157C4.8284 5.25038 4.94261 5.21528 5.03906 5.14935C5.13552 5.08341 5.20968 4.98975 5.25173 4.88074L6.45923 1.53591H6.45982Z" fill="#FFD057" stroke="#FFD057" stroke-linecap="round" stroke-linejoin="round"/>
</svg>
